<svg xmlns="http://www.w3.org/2000/svg" viewBox="0 0 16 16">
    <g>
        <rect fill="black" x="0" y="2" width="16" height="12" rx="0.5"/>
        <g fill="#FFFFFF" stroke="none">
            <!-- <line x1="4" x2="4" y1="2" y2="5" />
            <line x1="8" x2="8" y1="2" y2="5" />
            <line x1="12" x2="12" y1="2" y2="5" /> -->
            <!-- <line x1="12.5" x2="12.5" y1="2" y2="5" /> -->

            <!-- <line x1="0" x2="16" y1="5" y2="5" />

            <line x1="4" x2="4" y1="11" y2="14" />
            <line x1="8" x2="8" y1="11" y2="14" />
            <line x1="12" x2="12" y1="11" y2="14" />
            <line x1="12.5" x2="12.5" y1="11" y2="13.5" />

            <line x1="0" x2="16" y1="11" y2="11" /> -->
            <polygon 
                points="3.5 2 
                        3.5 4.5 
                        0 4.5 
                        0 5.5 
                        16 5.5 
                        16 4.5 
                        12.5 4.5 
                        12.5 2 
                        11.5 2 
                        11.5 4.5
                        8.5 4.5
                        8.5 2
                        7.5 2
                        7.5 4.5
                        4.5 4.5
                        4.5 2" />

            <polygon  
                points="3.5 14 
                        3.5 11.5 
                        0 11.5 
                        0 10.5 
                        16 10.5 
                        16 11.5 
                        12.5 11.5 
                        12.5 14 
                        11.5 14 
                        11.5 11.5
                        8.5 11.5
                        8.5 14
                        7.5 14
                        7.5 11.5
                        4.5 11.5
                        4.5 14" />
            <polygon points="6 6 10 8 6 10" />
            <!-- <path d="M 6 6.5 A 0.5 0.5 63.435 0 1 6.7236 6.0528 L 9.8 7.6 A 0.5 0.5 53.13 0 1 10 8 A 0.5 0.5 53.13 0 1 9.8 8.4 L 6.7236 9.942 A 0.5 0.5 63.435 0 1 6 9.5 Z" /> -->
        </g>
    </g>
</svg>